# MagicaVoxel @ Ephtracy

# group
o 

# material
mtllib Trees-0-4.mtl
usemtl palette

# normals
vn -1 0 0
vn 1 0 0
vn 0 0 1
vn 0 0 -1
vn 0 -1 0
vn 0 1 0

# texcoords
vt 0.0488281 0.5
vt 0.0527344 0.5
vt 0.134766 0.5
vt 0.138672 0.5

# verts
v -0.4 2 0.5
v -0.4 2 -0.3
v -0.4 2.1 0.5
v -0.4 2.1 -0.3
v -0.4 2.2 0.5
v -0.4 2.2 -0.3
v -0.4 2.3 0.5
v -0.4 2.3 -0.3
v -0.4 2.5 0.5
v -0.4 2.5 -0.3
v -0.4 2.7 0.5
v -0.4 2.7 -0.3
v -0.4 2.8 0.5
v -0.4 2.8 -0.3
v -0.4 3 0.5
v -0.4 3 -0.3
v -0.2 1 0.3
v -0.2 1 0.1
v -0.2 1.1 0.3
v -0.2 1.1 0.1
v -0.1 1 0.1
v -0.1 1 0
v -0.1 1.1 0.3
v -0.1 1.1 0.2
v -0.1 1.1 0.1
v -0.1 1.2 0.3
v -0.1 1.2 0.2
v -0.1 1.3 0.2
v -0.1 1.3 0
v -0.1 1.4 0.2
v -0.1 1.4 0
v -0.1 1.7 0.2
v -0.1 1.7 0
v -0.1 1.9 0.2
v -0.1 1.9 0
v -0.1 2 0.2
v -0.1 2 0
v 0 1 0
v 0 1 -0.1
v 0 1.1 0
v 0 1.1 -0.1
v 0 1.1 0.3
v 0 1.1 0.2
v 0 1.2 0.3
v 0 1.2 0.2
v 0.1 1 0.3
v 0.1 1 0.2
v 0.1 1 0.1
v 0.1 1.1 0.3
v 0.1 1.1 0.2
v 0.1 1.1 0.1
v 0.1 1.1 0
v 0.1 1.3 0.2
v 0.1 1.3 0
v 0.1 1.4 0.2
v 0.1 1.4 0
v 0.1 1.7 0.2
v 0.1 1.7 0
v 0.1 1.9 0.2
v 0.1 1.9 0
v 0.1 2 0.2
v 0.1 2 0
v 0.2 1 0.1
v 0.2 1 0
v 0.2 1 -0.1
v 0.2 1.1 0.1
v 0.2 1.1 0
v 0.2 1.1 -0.1
v 0.4 2 0.5
v 0.4 2 -0.3
v 0.4 2.1 0.5
v 0.4 2.1 -0.3
v 0.4 2.2 0.5
v 0.4 2.2 -0.3
v 0.4 2.3 0.5
v 0.4 2.3 -0.3
v 0.4 2.5 0.5
v 0.4 2.5 -0.3
v 0.4 2.7 0.5
v 0.4 2.7 -0.3
v 0.4 2.8 0.5
v 0.4 2.8 -0.3
v 0.4 3 0.5
v 0.4 3 -0.3
v -0.4 2 0.5
v -0.4 2.1 0.5
v -0.4 2.2 0.5
v -0.4 2.3 0.5
v -0.4 2.5 0.5
v -0.4 2.7 0.5
v -0.4 2.8 0.5
v -0.4 3 0.5
v 0.4 2 0.5
v 0.4 2.1 0.5
v 0.4 2.2 0.5
v 0.4 2.3 0.5
v 0.4 2.5 0.5
v 0.4 2.7 0.5
v 0.4 2.8 0.5
v 0.4 3 0.5
v -0.2 1 0.3
v -0.2 1.1 0.3
v -0.1 1 0.3
v -0.1 1.1 0.3
v -0.1 1.2 0.3
v 0 1.1 0.3
v 0 1.2 0.3
v 0.1 1 0.3
v 0.1 1.1 0.3
v -0.1 1.2 0.2
v -0.1 1.3 0.2
v -0.1 1.4 0.2
v -0.1 1.7 0.2
v -0.1 1.9 0.2
v -0.1 2 0.2
v 0 1.1 0.2
v 0 1.2 0.2
v 0.1 1.1 0.2
v 0.1 1.3 0.2
v 0.1 1.4 0.2
v 0.1 1.7 0.2
v 0.1 1.9 0.2
v 0.1 2 0.2
v 0.1 1 0.1
v 0.1 1.1 0.1
v 0.2 1 0.1
v 0.2 1.1 0.1
v -0.2 1 0.1
v -0.2 1.1 0.1
v -0.1 1 0.1
v -0.1 1.1 0.1
v -0.1 1 0
v -0.1 1.3 0
v -0.1 1.4 0
v -0.1 1.7 0
v -0.1 1.9 0
v -0.1 2 0
v 0 1 0
v 0 1.1 0
v 0.1 1.1 0
v 0.1 1.3 0
v 0.1 1.4 0
v 0.1 1.7 0
v 0.1 1.9 0
v 0.1 2 0
v 0 1 -0.1
v 0 1.1 -0.1
v 0.2 1 -0.1
v 0.2 1.1 -0.1
v -0.4 2 -0.3
v -0.4 2.1 -0.3
v -0.4 2.2 -0.3
v -0.4 2.3 -0.3
v -0.4 2.5 -0.3
v -0.4 2.7 -0.3
v -0.4 2.8 -0.3
v -0.4 3 -0.3
v 0.4 2 -0.3
v 0.4 2.1 -0.3
v 0.4 2.2 -0.3
v 0.4 2.3 -0.3
v 0.4 2.5 -0.3
v 0.4 2.7 -0.3
v 0.4 2.8 -0.3
v 0.4 3 -0.3
v -0.2 1 0.3
v -0.1 1 0.3
v 0.1 1 0.3
v -0.1 1 0.2
v 0.1 1 0.2
v -0.2 1 0.1
v -0.1 1 0.1
v 0.1 1 0.1
v 0.2 1 0.1
v -0.1 1 0
v 0 1 0
v 0.1 1 0
v 0.2 1 0
v 0 1 -0.1
v 0.2 1 -0.1
v -0.4 2 0.5
v 0.4 2 0.5
v -0.1 2 0.2
v 0.1 2 0.2
v -0.1 2 0
v 0.1 2 0
v -0.4 2 -0.3
v 0.4 2 -0.3
v -0.2 1.1 0.3
v -0.1 1.1 0.3
v 0 1.1 0.3
v 0.1 1.1 0.3
v -0.1 1.1 0.2
v 0 1.1 0.2
v 0.1 1.1 0.2
v -0.2 1.1 0.1
v -0.1 1.1 0.1
v 0.1 1.1 0.1
v 0.2 1.1 0.1
v 0 1.1 0
v 0.1 1.1 0
v 0.2 1.1 0
v 0 1.1 -0.1
v 0.2 1.1 -0.1
v -0.1 1.2 0.3
v 0 1.2 0.3
v -0.1 1.2 0.2
v 0 1.2 0.2
v -0.4 3 0.5
v 0.4 3 0.5
v -0.4 3 -0.3
v 0.4 3 -0.3

# faces
f 3/1/1 2/1/1 1/1/1
f 4/1/1 2/1/1 3/1/1
f 5/2/1 4/2/1 3/2/1
f 6/2/1 4/2/1 5/2/1
f 7/1/1 6/1/1 5/1/1
f 8/1/1 6/1/1 7/1/1
f 9/2/1 8/2/1 7/2/1
f 10/2/1 8/2/1 9/2/1
f 11/1/1 10/1/1 9/1/1
f 12/1/1 10/1/1 11/1/1
f 13/2/1 12/2/1 11/2/1
f 14/2/1 12/2/1 13/2/1
f 15/1/1 14/1/1 13/1/1
f 16/1/1 14/1/1 15/1/1
f 19/1/1 18/1/1 17/1/1
f 20/1/1 18/1/1 19/1/1
f 25/3/1 22/3/1 21/3/1
f 26/1/1 24/1/1 23/1/1
f 27/3/1 25/3/1 24/3/1
f 27/1/1 24/1/1 26/1/1
f 28/3/1 25/3/1 27/3/1
f 29/3/1 22/3/1 25/3/1
f 29/3/1 25/3/1 28/3/1
f 30/4/1 29/4/1 28/4/1
f 31/4/1 29/4/1 30/4/1
f 32/3/1 31/3/1 30/3/1
f 33/3/1 31/3/1 32/3/1
f 34/4/1 33/4/1 32/4/1
f 35/4/1 33/4/1 34/4/1
f 36/3/1 35/3/1 34/3/1
f 37/3/1 35/3/1 36/3/1
f 40/2/1 39/2/1 38/2/1
f 41/2/1 39/2/1 40/2/1
f 42/1/2 43/1/2 44/1/2
f 44/1/2 43/1/2 45/1/2
f 46/2/2 47/2/2 49/2/2
f 47/3/2 48/3/2 50/3/2
f 49/2/2 47/2/2 50/2/2
f 50/3/2 48/3/2 51/3/2
f 51/3/2 52/3/2 53/3/2
f 50/3/2 51/3/2 53/3/2
f 53/3/2 52/3/2 54/3/2
f 53/4/2 54/4/2 55/4/2
f 55/4/2 54/4/2 56/4/2
f 55/3/2 56/3/2 57/3/2
f 57/3/2 56/3/2 58/3/2
f 57/4/2 58/4/2 59/4/2
f 59/4/2 58/4/2 60/4/2
f 59/3/2 60/3/2 61/3/2
f 61/3/2 60/3/2 62/3/2
f 63/1/2 64/1/2 66/1/2
f 64/2/2 65/2/2 67/2/2
f 66/1/2 64/1/2 67/1/2
f 67/2/2 65/2/2 68/2/2
f 69/1/2 70/1/2 71/1/2
f 71/1/2 70/1/2 72/1/2
f 71/2/2 72/2/2 73/2/2
f 73/2/2 72/2/2 74/2/2
f 73/1/2 74/1/2 75/1/2
f 75/1/2 74/1/2 76/1/2
f 75/2/2 76/2/2 77/2/2
f 77/2/2 76/2/2 78/2/2
f 77/1/2 78/1/2 79/1/2
f 79/1/2 78/1/2 80/1/2
f 79/2/2 80/2/2 81/2/2
f 81/2/2 80/2/2 82/2/2
f 81/1/2 82/1/2 83/1/2
f 83/1/2 82/1/2 84/1/2
f 93/1/3 86/1/3 85/1/3
f 94/2/3 87/2/3 86/2/3
f 94/1/3 86/1/3 93/1/3
f 95/1/3 88/1/3 87/1/3
f 95/2/3 87/2/3 94/2/3
f 96/2/3 89/2/3 88/2/3
f 96/1/3 88/1/3 95/1/3
f 97/1/3 90/1/3 89/1/3
f 97/2/3 89/2/3 96/2/3
f 98/2/3 91/2/3 90/2/3
f 98/1/3 90/1/3 97/1/3
f 99/1/3 92/1/3 91/1/3
f 99/2/3 91/2/3 98/2/3
f 100/1/3 92/1/3 99/1/3
f 103/1/3 102/1/3 101/1/3
f 104/1/3 102/1/3 103/1/3
f 106/2/3 104/2/3 103/2/3
f 106/1/3 105/1/3 104/1/3
f 107/1/3 105/1/3 106/1/3
f 108/2/3 106/2/3 103/2/3
f 109/2/3 106/2/3 108/2/3
f 117/3/3 111/3/3 110/3/3
f 118/3/3 117/3/3 116/3/3
f 119/4/3 112/4/3 111/4/3
f 119/3/3 117/3/3 118/3/3
f 119/3/3 111/3/3 117/3/3
f 120/3/3 113/3/3 112/3/3
f 120/4/3 112/4/3 119/4/3
f 121/4/3 114/4/3 113/4/3
f 121/3/3 113/3/3 120/3/3
f 122/3/3 115/3/3 114/3/3
f 122/4/3 114/4/3 121/4/3
f 123/3/3 115/3/3 122/3/3
f 126/1/3 125/1/3 124/1/3
f 127/1/3 125/1/3 126/1/3
f 128/1/4 129/1/4 130/1/4
f 130/1/4 129/1/4 131/1/4
f 132/3/4 133/3/4 138/3/4
f 138/3/4 133/3/4 139/3/4
f 139/3/4 133/3/4 140/3/4
f 133/4/4 134/4/4 141/4/4
f 140/3/4 133/3/4 141/3/4
f 134/3/4 135/3/4 142/3/4
f 141/4/4 134/4/4 142/4/4
f 135/4/4 136/4/4 143/4/4
f 142/3/4 135/3/4 143/3/4
f 136/3/4 137/3/4 144/3/4
f 143/4/4 136/4/4 144/4/4
f 144/3/4 137/3/4 145/3/4
f 146/2/4 147/2/4 148/2/4
f 148/2/4 147/2/4 149/2/4
f 150/1/4 151/1/4 158/1/4
f 151/2/4 152/2/4 159/2/4
f 158/1/4 151/1/4 159/1/4
f 152/1/4 153/1/4 160/1/4
f 159/2/4 152/2/4 160/2/4
f 153/2/4 154/2/4 161/2/4
f 160/1/4 153/1/4 161/1/4
f 154/1/4 155/1/4 162/1/4
f 161/2/4 154/2/4 162/2/4
f 155/2/4 156/2/4 163/2/4
f 162/1/4 155/1/4 163/1/4
f 156/1/4 157/1/4 164/1/4
f 163/2/4 156/2/4 164/2/4
f 164/1/4 157/1/4 165/1/4
f 169/1/5 167/1/5 166/1/5
f 169/2/5 168/2/5 167/2/5
f 170/2/5 168/2/5 169/2/5
f 171/1/5 169/1/5 166/1/5
f 172/3/5 170/3/5 169/3/5
f 172/1/5 169/1/5 171/1/5
f 173/3/5 170/3/5 172/3/5
f 175/3/5 173/3/5 172/3/5
f 176/3/5 173/3/5 175/3/5
f 177/1/5 174/1/5 173/1/5
f 177/3/5 173/3/5 176/3/5
f 178/1/5 174/1/5 177/1/5
f 179/2/5 177/2/5 176/2/5
f 179/2/5 178/2/5 177/2/5
f 180/2/5 178/2/5 179/2/5
f 183/1/5 182/1/5 181/1/5
f 184/1/5 182/1/5 183/1/5
f 185/1/5 183/1/5 181/1/5
f 186/1/5 182/1/5 184/1/5
f 187/1/5 185/1/5 181/1/5
f 187/1/5 186/1/5 185/1/5
f 188/1/5 182/1/5 186/1/5
f 188/1/5 186/1/5 187/1/5
f 189/1/6 190/1/6 193/1/6
f 191/2/6 192/2/6 194/2/6
f 194/2/6 192/2/6 195/2/6
f 189/1/6 193/1/6 196/1/6
f 196/1/6 193/1/6 197/1/6
f 198/1/6 199/1/6 201/1/6
f 201/1/6 199/1/6 202/1/6
f 200/2/6 201/2/6 203/2/6
f 201/2/6 202/2/6 203/2/6
f 203/2/6 202/2/6 204/2/6
f 205/1/6 206/1/6 207/1/6
f 207/1/6 206/1/6 208/1/6
f 209/1/6 210/1/6 211/1/6
f 211/1/6 210/1/6 212/1/6
