# MagicaVoxel @ Ephtracy

# group
o 

# material
mtllib Ground-1.mtl
usemtl palette

# normals
vn -1 0 0
vn 1 0 0
vn 0 0 1
vn 0 0 -1
vn 0 -1 0
vn 0 1 0

# texcoords
vt 0.0488281 0.5
vt 0.134766 0.5
vt 0.138672 0.5
vt 0.232422 0.5
vt 0.236328 0.5
vt 0.244141 0.5
vt 0.248047 0.5

# verts
v 4.8 0 -5.6
v 4.8 0 -9.6
v 4.8 0.6 -5.6
v 4.8 0.6 -9.6
v 4.8 1.1 -5.6
v 4.8 1.1 -9.6
v 4.8 1.9 -5.6
v 4.8 1.9 -9.6
v 4.8 2.7 -5.6
v 4.8 2.7 -9.6
v 4.8 3.9 -5.6
v 4.8 3.9 -9.6
v 4.8 4 -5.6
v 4.8 4 -9.6
v 8.8 0 -5.6
v 8.8 0 -9.6
v 8.8 0.6 -5.6
v 8.8 0.6 -9.6
v 8.8 1.1 -5.6
v 8.8 1.1 -9.6
v 8.8 1.9 -5.6
v 8.8 1.9 -9.6
v 8.8 2.7 -5.6
v 8.8 2.7 -9.6
v 8.8 3.9 -5.6
v 8.8 3.9 -9.6
v 8.8 4 -5.6
v 8.8 4 -9.6
v 4.8 0 -5.6
v 4.8 0.6 -5.6
v 4.8 1.1 -5.6
v 4.8 1.9 -5.6
v 4.8 2.7 -5.6
v 4.8 3.9 -5.6
v 4.8 4 -5.6
v 8.8 0 -5.6
v 8.8 0.6 -5.6
v 8.8 1.1 -5.6
v 8.8 1.9 -5.6
v 8.8 2.7 -5.6
v 8.8 3.9 -5.6
v 8.8 4 -5.6
v 4.8 0 -9.6
v 4.8 0.6 -9.6
v 4.8 1.1 -9.6
v 4.8 1.9 -9.6
v 4.8 2.7 -9.6
v 4.8 3.9 -9.6
v 4.8 4 -9.6
v 8.8 0 -9.6
v 8.8 0.6 -9.6
v 8.8 1.1 -9.6
v 8.8 1.9 -9.6
v 8.8 2.7 -9.6
v 8.8 3.9 -9.6
v 8.8 4 -9.6
v 4.8 0 -5.6
v 8.8 0 -5.6
v 4.9 0 -5.8
v 8.7 0 -5.8
v 4.9 0 -9.5
v 8.7 0 -9.5
v 4.8 0 -9.6
v 8.8 0 -9.6
v 4.8 4 -5.6
v 8.8 4 -5.6
v 4.8 4 -9.6
v 8.8 4 -9.6

# faces
f 3/7/1 2/7/1 1/7/1
f 4/7/1 2/7/1 3/7/1
f 5/2/1 4/2/1 3/2/1
f 6/2/1 4/2/1 5/2/1
f 7/3/1 6/3/1 5/3/1
f 8/3/1 6/3/1 7/3/1
f 9/2/1 8/2/1 7/2/1
f 10/2/1 8/2/1 9/2/1
f 11/7/1 10/7/1 9/7/1
f 12/7/1 10/7/1 11/7/1
f 13/1/1 12/1/1 11/1/1
f 14/1/1 12/1/1 13/1/1
f 15/7/2 16/7/2 17/7/2
f 17/7/2 16/7/2 18/7/2
f 17/2/2 18/2/2 19/2/2
f 19/2/2 18/2/2 20/2/2
f 19/3/2 20/3/2 21/3/2
f 21/3/2 20/3/2 22/3/2
f 21/2/2 22/2/2 23/2/2
f 23/2/2 22/2/2 24/2/2
f 23/7/2 24/7/2 25/7/2
f 25/7/2 24/7/2 26/7/2
f 25/1/2 26/1/2 27/1/2
f 27/1/2 26/1/2 28/1/2
f 36/7/3 30/7/3 29/7/3
f 37/2/3 31/2/3 30/2/3
f 37/7/3 30/7/3 36/7/3
f 38/3/3 32/3/3 31/3/3
f 38/2/3 31/2/3 37/2/3
f 39/2/3 33/2/3 32/2/3
f 39/3/3 32/3/3 38/3/3
f 40/7/3 34/7/3 33/7/3
f 40/2/3 33/2/3 39/2/3
f 41/1/3 35/1/3 34/1/3
f 41/7/3 34/7/3 40/7/3
f 42/1/3 35/1/3 41/1/3
f 43/7/4 44/7/4 50/7/4
f 44/2/4 45/2/4 51/2/4
f 50/7/4 44/7/4 51/7/4
f 45/3/4 46/3/4 52/3/4
f 51/2/4 45/2/4 52/2/4
f 46/2/4 47/2/4 53/2/4
f 52/3/4 46/3/4 53/3/4
f 47/7/4 48/7/4 54/7/4
f 53/2/4 47/2/4 54/2/4
f 48/1/4 49/1/4 55/1/4
f 54/7/4 48/7/4 55/7/4
f 55/1/4 49/1/4 56/1/4
f 59/7/5 58/7/5 57/7/5
f 60/7/5 58/7/5 59/7/5
f 61/7/5 59/7/5 57/7/5
f 61/6/5 60/6/5 59/6/5
f 62/7/5 58/7/5 60/7/5
f 62/6/5 60/6/5 61/6/5
f 63/7/5 61/7/5 57/7/5
f 63/7/5 62/7/5 61/7/5
f 64/7/5 58/7/5 62/7/5
f 64/7/5 62/7/5 63/7/5
f 65/1/6 66/1/6 67/1/6
f 67/1/6 66/1/6 68/1/6
