# MagicaVoxel @ Ephtracy

# group
o 

# material
mtllib Ground seed-1.mtl
usemtl palette

# normals
vn -1 0 0
vn 1 0 0
vn 0 0 1
vn 0 0 -1
vn 0 -1 0
vn 0 1 0

# texcoords
vt 0.0527344 0.5
vt 0.134766 0.5
vt 0.138672 0.5
vt 0.232422 0.5
vt 0.236328 0.5
vt 0.244141 0.5
vt 0.248047 0.5

# verts
v 0.8 0 -5.6
v 0.8 0 -9.6
v 0.8 0.6 -5.6
v 0.8 0.6 -9.6
v 0.8 1.1 -5.6
v 0.8 1.1 -9.6
v 0.8 1.9 -5.6
v 0.8 1.9 -9.6
v 0.8 2.7 -5.6
v 0.8 2.7 -9.6
v 0.8 3.9 -5.6
v 0.8 3.9 -9.6
v 0.8 4 -5.6
v 0.8 4 -9.6
v 4.8 0 -5.6
v 4.8 0 -9.6
v 4.8 0.6 -5.6
v 4.8 0.6 -9.6
v 4.8 1.1 -5.6
v 4.8 1.1 -9.6
v 4.8 1.9 -5.6
v 4.8 1.9 -9.6
v 4.8 2.7 -5.6
v 4.8 2.7 -9.6
v 4.8 3.9 -5.6
v 4.8 3.9 -9.6
v 4.8 4 -5.6
v 4.8 4 -9.6
v 0.8 0 -5.6
v 0.8 0.6 -5.6
v 0.8 1.1 -5.6
v 0.8 1.9 -5.6
v 0.8 2.7 -5.6
v 0.8 3.9 -5.6
v 0.8 4 -5.6
v 4.8 0 -5.6
v 4.8 0.6 -5.6
v 4.8 1.1 -5.6
v 4.8 1.9 -5.6
v 4.8 2.7 -5.6
v 4.8 3.9 -5.6
v 4.8 4 -5.6
v 0.8 0 -9.6
v 0.8 0.6 -9.6
v 0.8 1.1 -9.6
v 0.8 1.9 -9.6
v 0.8 2.7 -9.6
v 0.8 3.9 -9.6
v 0.8 4 -9.6
v 4.8 0 -9.6
v 4.8 0.6 -9.6
v 4.8 1.1 -9.6
v 4.8 1.9 -9.6
v 4.8 2.7 -9.6
v 4.8 3.9 -9.6
v 4.8 4 -9.6
v 0.8 0 -5.6
v 4.8 0 -5.6
v 0.9 0 -5.8
v 4.7 0 -5.8
v 0.9 0 -9.5
v 4.7 0 -9.5
v 0.8 0 -9.6
v 4.8 0 -9.6
v 0.8 4 -5.6
v 4.8 4 -5.6
v 3.1 4 -6
v 3.2 4 -6
v 1.5 4 -6.1
v 1.6 4 -6.1
v 2.8 4 -6.1
v 3.1 4 -6.1
v 3.2 4 -6.1
v 3.5 4 -6.1
v 1.3 4 -6.2
v 1.5 4 -6.2
v 1.6 4 -6.2
v 2.8 4 -6.2
v 3.5 4 -6.2
v 4.2 4 -6.2
v 3.4 4 -6.4
v 3.6 4 -6.4
v 1.6 4 -6.5
v 1.8 4 -6.5
v 3.4 4 -6.6
v 3.6 4 -6.6
v 1.3 4 -6.7
v 1.4 4 -6.7
v 1.6 4 -6.7
v 1.8 4 -6.7
v 2.3 4 -6.7
v 2.6 4 -6.7
v 4.2 4 -6.7
v 4.3 4 -6.7
v 2.3 4 -7
v 2.6 4 -7
v 3.4 4 -7
v 3.5 4 -7
v 3.4 4 -7.1
v 3.5 4 -7.1
v 4.2 4 -7.2
v 4.3 4 -7.2
v 3.8 4 -7.4
v 3.9 4 -7.4
v 2 4 -7.6
v 2.1 4 -7.6
v 3.8 4 -7.6
v 3.9 4 -7.6
v 4.2 4 -7.6
v 4.3 4 -7.6
v 1.3 4 -7.7
v 1.4 4 -7.7
v 2 4 -7.7
v 2.1 4 -7.7
v 4.3 4 -7.7
v 4.4 4 -7.7
v 4.3 4 -7.9
v 4.4 4 -7.9
v 4.2 4 -8
v 4.3 4 -8
v 1.2 4 -8.1
v 1.3 4 -8.1
v 2.7 4 -8.1
v 2.9 4 -8.1
v 3.4 4 -8.1
v 3.7 4 -8.1
v 2.1 4 -8.2
v 2.3 4 -8.2
v 1.2 4 -8.3
v 1.3 4 -8.3
v 2.7 4 -8.3
v 2.9 4 -8.3
v 3.4 4 -8.3
v 3.7 4 -8.3
v 2.1 4 -8.4
v 2.3 4 -8.4
v 1.3 4 -8.5
v 1.4 4 -8.5
v 1.7 4 -8.7
v 1.8 4 -8.7
v 3.6 4 -8.7
v 3.8 4 -8.7
v 1.7 4 -8.9
v 1.8 4 -8.9
v 3.6 4 -8.9
v 3.8 4 -8.9
v 1.4 4 -9.1
v 2.5 4 -9.1
v 3.1 4 -9.1
v 4.2 4 -9.1
v 2.5 4 -9.2
v 2.7 4 -9.2
v 2.7 4 -9.3
v 3.1 4 -9.3
v 0.8 4 -9.6
v 4.8 4 -9.6

# faces
f 3/7/1 2/7/1 1/7/1
f 4/7/1 2/7/1 3/7/1
f 5/2/1 4/2/1 3/2/1
f 6/2/1 4/2/1 5/2/1
f 7/3/1 6/3/1 5/3/1
f 8/3/1 6/3/1 7/3/1
f 9/2/1 8/2/1 7/2/1
f 10/2/1 8/2/1 9/2/1
f 11/7/1 10/7/1 9/7/1
f 12/7/1 10/7/1 11/7/1
f 13/1/1 12/1/1 11/1/1
f 14/1/1 12/1/1 13/1/1
f 15/7/2 16/7/2 17/7/2
f 17/7/2 16/7/2 18/7/2
f 17/2/2 18/2/2 19/2/2
f 19/2/2 18/2/2 20/2/2
f 19/3/2 20/3/2 21/3/2
f 21/3/2 20/3/2 22/3/2
f 21/2/2 22/2/2 23/2/2
f 23/2/2 22/2/2 24/2/2
f 23/7/2 24/7/2 25/7/2
f 25/7/2 24/7/2 26/7/2
f 25/1/2 26/1/2 27/1/2
f 27/1/2 26/1/2 28/1/2
f 36/7/3 30/7/3 29/7/3
f 37/2/3 31/2/3 30/2/3
f 37/7/3 30/7/3 36/7/3
f 38/3/3 32/3/3 31/3/3
f 38/2/3 31/2/3 37/2/3
f 39/2/3 33/2/3 32/2/3
f 39/3/3 32/3/3 38/3/3
f 40/7/3 34/7/3 33/7/3
f 40/2/3 33/2/3 39/2/3
f 41/1/3 35/1/3 34/1/3
f 41/7/3 34/7/3 40/7/3
f 42/1/3 35/1/3 41/1/3
f 43/7/4 44/7/4 50/7/4
f 44/2/4 45/2/4 51/2/4
f 50/7/4 44/7/4 51/7/4
f 45/3/4 46/3/4 52/3/4
f 51/2/4 45/2/4 52/2/4
f 46/2/4 47/2/4 53/2/4
f 52/3/4 46/3/4 53/3/4
f 47/7/4 48/7/4 54/7/4
f 53/2/4 47/2/4 54/2/4
f 48/1/4 49/1/4 55/1/4
f 54/7/4 48/7/4 55/7/4
f 55/1/4 49/1/4 56/1/4
f 59/7/5 58/7/5 57/7/5
f 60/7/5 58/7/5 59/7/5
f 61/7/5 59/7/5 57/7/5
f 61/6/5 60/6/5 59/6/5
f 62/7/5 58/7/5 60/7/5
f 62/6/5 60/6/5 61/6/5
f 63/7/5 61/7/5 57/7/5
f 63/7/5 62/7/5 61/7/5
f 64/7/5 58/7/5 62/7/5
f 64/7/5 62/7/5 63/7/5
f 65/1/6 66/1/6 67/1/6
f 67/1/6 66/1/6 68/1/6
f 65/1/6 67/1/6 69/1/6
f 69/1/6 67/1/6 70/1/6
f 70/1/6 67/1/6 71/1/6
f 67/7/6 68/7/6 72/7/6
f 71/1/6 67/1/6 72/1/6
f 68/1/6 66/1/6 73/1/6
f 72/7/6 68/7/6 73/7/6
f 73/1/6 66/1/6 74/1/6
f 65/1/6 69/1/6 75/1/6
f 69/7/6 70/7/6 76/7/6
f 75/1/6 69/1/6 76/1/6
f 70/1/6 71/1/6 77/1/6
f 76/7/6 70/7/6 77/7/6
f 71/7/6 72/7/6 78/7/6
f 77/1/6 71/1/6 78/1/6
f 72/7/6 73/7/6 78/7/6
f 73/7/6 74/7/6 78/7/6
f 74/1/6 66/1/6 79/1/6
f 78/7/6 74/7/6 79/7/6
f 79/1/6 66/1/6 80/1/6
f 76/7/6 77/7/6 81/7/6
f 75/7/6 76/7/6 81/7/6
f 79/7/6 80/7/6 81/7/6
f 78/7/6 79/7/6 81/7/6
f 77/7/6 78/7/6 81/7/6
f 81/7/6 80/7/6 82/7/6
f 75/7/6 81/7/6 83/7/6
f 83/7/6 81/7/6 84/7/6
f 81/6/6 82/6/6 85/6/6
f 84/7/6 81/7/6 85/7/6
f 82/7/6 80/7/6 86/7/6
f 85/6/6 82/6/6 86/6/6
f 65/1/6 75/1/6 87/1/6
f 75/7/6 83/7/6 87/7/6
f 87/7/6 83/7/6 88/7/6
f 83/6/6 84/6/6 89/6/6
f 88/7/6 83/7/6 89/7/6
f 84/7/6 85/7/6 90/7/6
f 89/6/6 84/6/6 90/6/6
f 85/7/6 86/7/6 90/7/6
f 90/7/6 86/7/6 91/7/6
f 91/7/6 86/7/6 92/7/6
f 80/1/6 66/1/6 93/1/6
f 92/7/6 86/7/6 93/7/6
f 86/7/6 80/7/6 93/7/6
f 93/1/6 66/1/6 94/1/6
f 91/6/6 92/6/6 95/6/6
f 90/7/6 91/7/6 95/7/6
f 88/7/6 89/7/6 95/7/6
f 89/7/6 90/7/6 95/7/6
f 93/7/6 94/7/6 96/7/6
f 95/6/6 92/6/6 96/6/6
f 92/7/6 93/7/6 96/7/6
f 96/7/6 94/7/6 97/7/6
f 97/7/6 94/7/6 98/7/6
f 95/7/6 96/7/6 99/7/6
f 96/7/6 97/7/6 99/7/6
f 97/6/6 98/6/6 99/6/6
f 98/7/6 94/7/6 100/7/6
f 99/6/6 98/6/6 100/6/6
f 99/7/6 100/7/6 101/7/6
f 100/7/6 94/7/6 101/7/6
f 94/1/6 66/1/6 102/1/6
f 101/7/6 94/7/6 102/7/6
f 99/7/6 101/7/6 103/7/6
f 103/7/6 101/7/6 104/7/6
f 88/7/6 95/7/6 105/7/6
f 95/7/6 99/7/6 105/7/6
f 99/7/6 103/7/6 105/7/6
f 105/7/6 103/7/6 106/7/6
f 103/6/6 104/6/6 107/6/6
f 106/7/6 103/7/6 107/7/6
f 104/7/6 101/7/6 108/7/6
f 107/6/6 104/6/6 108/6/6
f 101/1/6 102/1/6 109/1/6
f 108/7/6 101/7/6 109/7/6
f 102/1/6 66/1/6 110/1/6
f 109/1/6 102/1/6 110/1/6
f 65/1/6 87/1/6 111/1/6
f 87/1/6 88/1/6 111/1/6
f 88/7/6 105/7/6 112/7/6
f 111/1/6 88/1/6 112/1/6
f 105/6/6 106/6/6 113/6/6
f 112/7/6 105/7/6 113/7/6
f 108/7/6 109/7/6 114/7/6
f 113/6/6 106/6/6 114/6/6
f 106/7/6 107/7/6 114/7/6
f 109/7/6 110/7/6 114/7/6
f 107/7/6 108/7/6 114/7/6
f 110/1/6 66/1/6 115/1/6
f 114/7/6 110/7/6 115/7/6
f 115/1/6 66/1/6 116/1/6
f 112/7/6 113/7/6 117/7/6
f 113/7/6 114/7/6 117/7/6
f 115/7/6 116/7/6 117/7/6
f 114/7/6 115/7/6 117/7/6
f 111/7/6 112/7/6 117/7/6
f 116/1/6 66/1/6 118/1/6
f 117/7/6 116/7/6 118/7/6
f 111/7/6 117/7/6 119/7/6
f 117/1/6 118/1/6 120/1/6
f 119/7/6 117/7/6 120/7/6
f 65/1/6 111/1/6 121/1/6
f 111/7/6 119/7/6 122/7/6
f 121/1/6 111/1/6 122/1/6
f 122/7/6 119/7/6 123/7/6
f 123/7/6 119/7/6 124/7/6
f 124/7/6 119/7/6 125/7/6
f 125/7/6 119/7/6 126/7/6
f 121/7/6 122/7/6 127/7/6
f 122/7/6 123/7/6 127/7/6
f 127/7/6 123/7/6 128/7/6
f 65/1/6 121/1/6 129/1/6
f 121/7/6 127/7/6 129/7/6
f 129/7/6 127/7/6 130/7/6
f 128/7/6 123/7/6 131/7/6
f 123/6/6 124/6/6 131/6/6
f 124/7/6 125/7/6 132/7/6
f 131/6/6 124/6/6 132/6/6
f 125/6/6 126/6/6 133/6/6
f 132/7/6 125/7/6 133/7/6
f 126/7/6 119/7/6 134/7/6
f 133/6/6 126/6/6 134/6/6
f 130/7/6 127/7/6 135/7/6
f 127/6/6 128/6/6 135/6/6
f 132/7/6 133/7/6 136/7/6
f 135/6/6 128/6/6 136/6/6
f 131/7/6 132/7/6 136/7/6
f 128/7/6 131/7/6 136/7/6
f 133/7/6 134/7/6 136/7/6
f 130/7/6 135/7/6 137/7/6
f 129/1/6 130/1/6 137/1/6
f 135/7/6 136/7/6 137/7/6
f 137/7/6 136/7/6 138/7/6
f 138/7/6 136/7/6 139/7/6
f 139/7/6 136/7/6 140/7/6
f 136/7/6 134/7/6 141/7/6
f 140/7/6 136/7/6 141/7/6
f 134/7/6 119/7/6 142/7/6
f 141/7/6 134/7/6 142/7/6
f 139/6/6 140/6/6 143/6/6
f 138/7/6 139/7/6 143/7/6
f 140/7/6 141/7/6 144/7/6
f 143/6/6 140/6/6 144/6/6
f 141/6/6 142/6/6 145/6/6
f 144/7/6 141/7/6 145/7/6
f 142/7/6 119/7/6 146/7/6
f 145/6/6 142/6/6 146/6/6
f 138/7/6 143/7/6 147/7/6
f 144/7/6 145/7/6 147/7/6
f 145/7/6 146/7/6 147/7/6
f 143/7/6 144/7/6 147/7/6
f 137/1/6 138/1/6 147/1/6
f 147/7/6 146/7/6 148/7/6
f 148/7/6 146/7/6 149/7/6
f 146/7/6 119/7/6 150/7/6
f 149/7/6 146/7/6 150/7/6
f 119/1/6 120/1/6 150/1/6
f 148/7/6 149/7/6 151/7/6
f 147/1/6 148/1/6 151/1/6
f 151/7/6 149/7/6 152/7/6
f 151/1/6 152/1/6 153/1/6
f 152/7/6 149/7/6 153/7/6
f 149/1/6 150/1/6 154/1/6
f 153/7/6 149/7/6 154/7/6
f 151/1/6 153/1/6 155/1/6
f 129/1/6 137/1/6 155/1/6
f 153/1/6 154/1/6 155/1/6
f 147/1/6 151/1/6 155/1/6
f 137/1/6 147/1/6 155/1/6
f 65/1/6 129/1/6 155/1/6
f 118/1/6 66/1/6 156/1/6
f 155/1/6 154/1/6 156/1/6
f 120/1/6 118/1/6 156/1/6
f 154/1/6 150/1/6 156/1/6
f 150/1/6 120/1/6 156/1/6
