# MagicaVoxel @ Ephtracy

# group
o 

# material
mtllib Grapes 8x8.mtl
usemtl palette

# normals
vn -1 0 0
vn 1 0 0
vn 0 0 1
vn 0 0 -1
vn 0 -1 0
vn 0 1 0

# texcoords
vt 0.0410156 0.5
vt 0.0839844 0.5
vt 0.0878906 0.5
vt 0.744141 0.5

# verts
v -0.3 0.3 0.2
v -0.3 0.3 0.1
v -0.3 0.3 -0.2
v -0.3 0.4 0.3
v -0.3 0.4 0.2
v -0.3 0.4 0
v -0.3 0.4 -0.1
v -0.3 0.4 -0.2
v -0.3 0.4 -0.3
v -0.3 0.5 0.3
v -0.3 0.5 0.2
v -0.3 0.5 0.1
v -0.3 0.5 0
v -0.3 0.5 -0.1
v -0.3 0.5 -0.3
v -0.2 0.1 0.1
v -0.2 0.1 -0.1
v -0.2 0.2 0.2
v -0.2 0.2 0.1
v -0.2 0.2 0
v -0.2 0.2 -0.1
v -0.2 0.2 -0.2
v -0.2 0.3 0.3
v -0.2 0.3 0.2
v -0.2 0.3 0.1
v -0.2 0.3 0
v -0.2 0.3 -0.2
v -0.2 0.3 -0.3
v -0.2 0.4 0.3
v -0.2 0.4 0.2
v -0.2 0.4 -0.2
v -0.2 0.4 -0.3
v -0.2 0.5 0.2
v -0.2 0.5 0.1
v -0.2 0.5 0
v -0.2 0.5 -0.1
v -0.2 0.5 -0.2
v -0.2 0.6 0.2
v -0.2 0.6 0.1
v -0.2 0.6 0
v -0.2 0.6 -0.2
v -0.1 0 0.1
v -0.1 0 0
v -0.1 0 -0.1
v -0.1 0.1 0.2
v -0.1 0.1 0.1
v -0.1 0.1 0
v -0.1 0.1 -0.1
v -0.1 0.1 -0.2
v -0.1 0.2 0.2
v -0.1 0.2 0.1
v -0.1 0.2 -0.1
v -0.1 0.2 -0.2
v 0 0.6 0.2
v 0 0.6 0.1
v 0 0.6 0
v 0 0.7 0.2
v 0 0.7 0.1
v 0 0.7 0
v 0 0.7 -0.1
v 0 0.8 0.1
v 0 0.8 -0.1
v 0.1 0 0.1
v 0.1 0 -0.1
v 0.1 0.1 0.2
v 0.1 0.1 0.1
v 0.1 0.1 0
v 0.1 0.1 -0.1
v 0.1 0.1 -0.2
v 0.1 0.2 0.2
v 0.1 0.2 0.1
v 0.1 0.2 -0.1
v 0.1 0.2 -0.2
v 0.1 0.6 0.2
v 0.1 0.6 0.1
v 0.1 0.6 0
v 0.1 0.7 0.2
v 0.1 0.7 0.1
v 0.1 0.7 0
v 0.1 0.7 -0.1
v 0.1 0.8 0.1
v 0.1 0.8 -0.1
v 0.2 0.1 0.1
v 0.2 0.1 0
v 0.2 0.1 -0.1
v 0.2 0.2 0.2
v 0.2 0.2 0.1
v 0.2 0.2 0
v 0.2 0.2 -0.1
v 0.2 0.2 -0.2
v 0.2 0.3 0.3
v 0.2 0.3 0.2
v 0.2 0.3 0.1
v 0.2 0.3 -0.1
v 0.2 0.3 -0.2
v 0.2 0.3 -0.3
v 0.2 0.4 0.3
v 0.2 0.4 0.2
v 0.2 0.4 -0.2
v 0.2 0.4 -0.3
v 0.2 0.5 0.2
v 0.2 0.5 0.1
v 0.2 0.5 0
v 0.2 0.5 -0.1
v 0.2 0.5 -0.2
v 0.2 0.6 0.2
v 0.2 0.6 0.1
v 0.2 0.6 0
v 0.2 0.6 -0.2
v 0.3 0.3 0.2
v 0.3 0.3 0.1
v 0.3 0.3 -0.1
v 0.3 0.3 -0.2
v 0.3 0.4 0.3
v 0.3 0.4 0.2
v 0.3 0.4 0.1
v 0.3 0.4 0
v 0.3 0.4 -0.2
v 0.3 0.4 -0.3
v 0.3 0.5 0.3
v 0.3 0.5 0
v 0.3 0.5 -0.1
v 0.3 0.5 -0.3
v -0.3 0.4 0.3
v -0.3 0.5 0.3
v -0.2 0.3 0.3
v -0.2 0.4 0.3
v 0 0.3 0.3
v 0 0.4 0.3
v 0.1 0.3 0.3
v 0.1 0.4 0.3
v 0.1 0.5 0.3
v 0.2 0.3 0.3
v 0.2 0.4 0.3
v 0.2 0.5 0.3
v 0.3 0.4 0.3
v 0.3 0.5 0.3
v -0.3 0.3 0.2
v -0.3 0.4 0.2
v -0.2 0.2 0.2
v -0.2 0.3 0.2
v -0.2 0.4 0.2
v -0.2 0.5 0.2
v -0.2 0.6 0.2
v -0.1 0.1 0.2
v -0.1 0.2 0.2
v 0 0.1 0.2
v 0 0.2 0.2
v 0 0.3 0.2
v 0 0.5 0.2
v 0 0.6 0.2
v 0 0.7 0.2
v 0.1 0.1 0.2
v 0.1 0.2 0.2
v 0.1 0.3 0.2
v 0.1 0.5 0.2
v 0.1 0.6 0.2
v 0.1 0.7 0.2
v 0.2 0.2 0.2
v 0.2 0.3 0.2
v 0.2 0.4 0.2
v 0.2 0.5 0.2
v 0.2 0.6 0.2
v 0.3 0.3 0.2
v 0.3 0.4 0.2
v -0.2 0.1 0.1
v -0.2 0.2 0.1
v -0.1 0 0.1
v -0.1 0.1 0.1
v -0.1 0.2 0.1
v 0 0.1 0.1
v 0 0.7 0.1
v 0 0.8 0.1
v 0.1 0 0.1
v 0.1 0.1 0.1
v 0.1 0.2 0.1
v 0.1 0.7 0.1
v 0.1 0.8 0.1
v 0.2 0.1 0.1
v 0.2 0.2 0.1
v 0 0.6 0
v 0 0.7 0
v 0.1 0.6 0
v 0.1 0.7 0
v -0.2 0.1 -0.1
v -0.2 0.2 -0.1
v -0.1 0 -0.1
v -0.1 0.1 -0.1
v -0.1 0.2 -0.1
v 0 0 -0.1
v 0 0.1 -0.1
v 0 0.7 -0.1
v 0 0.8 -0.1
v 0.1 0 -0.1
v 0.1 0.1 -0.1
v 0.1 0.2 -0.1
v 0.1 0.7 -0.1
v 0.1 0.8 -0.1
v 0.2 0.1 -0.1
v 0.2 0.2 -0.1
v -0.3 0.3 -0.2
v -0.3 0.4 -0.2
v -0.2 0.2 -0.2
v -0.2 0.3 -0.2
v -0.2 0.4 -0.2
v -0.2 0.5 -0.2
v -0.2 0.6 -0.2
v -0.1 0.1 -0.2
v -0.1 0.2 -0.2
v -0.1 0.3 -0.2
v -0.1 0.5 -0.2
v -0.1 0.6 -0.2
v 0 0.1 -0.2
v 0 0.2 -0.2
v 0 0.3 -0.2
v 0 0.5 -0.2
v 0 0.6 -0.2
v 0.1 0.1 -0.2
v 0.1 0.2 -0.2
v 0.1 0.3 -0.2
v 0.1 0.5 -0.2
v 0.2 0.2 -0.2
v 0.2 0.3 -0.2
v 0.2 0.4 -0.2
v 0.2 0.5 -0.2
v 0.2 0.6 -0.2
v 0.3 0.3 -0.2
v 0.3 0.4 -0.2
v -0.3 0.4 -0.3
v -0.3 0.5 -0.3
v -0.2 0.3 -0.3
v -0.2 0.4 -0.3
v -0.1 0.3 -0.3
v -0.1 0.4 -0.3
v 0 0.3 -0.3
v 0 0.4 -0.3
v 0.1 0.3 -0.3
v 0.1 0.4 -0.3
v 0.1 0.5 -0.3
v 0.2 0.3 -0.3
v 0.2 0.4 -0.3
v 0.2 0.5 -0.3
v 0.3 0.4 -0.3
v 0.3 0.5 -0.3
v -0.1 0 0.1
v 0.1 0 0.1
v -0.1 0 0
v 0 0 0
v -0.1 0 -0.1
v 0 0 -0.1
v 0.1 0 -0.1
v -0.1 0.1 0.2
v 0 0.1 0.2
v 0.1 0.1 0.2
v -0.2 0.1 0.1
v -0.1 0.1 0.1
v 0 0.1 0.1
v 0.1 0.1 0.1
v 0.2 0.1 0.1
v -0.1 0.1 0
v 0.1 0.1 0
v 0.2 0.1 0
v -0.2 0.1 -0.1
v -0.1 0.1 -0.1
v 0 0.1 -0.1
v 0.1 0.1 -0.1
v 0.2 0.1 -0.1
v -0.1 0.1 -0.2
v 0 0.1 -0.2
v 0.1 0.1 -0.2
v -0.2 0.2 0.2
v -0.1 0.2 0.2
v 0.1 0.2 0.2
v 0.2 0.2 0.2
v -0.2 0.2 0.1
v -0.1 0.2 0.1
v 0.1 0.2 0.1
v 0.2 0.2 0.1
v -0.2 0.2 -0.1
v -0.1 0.2 -0.1
v 0.1 0.2 -0.1
v 0.2 0.2 -0.1
v -0.2 0.2 -0.2
v -0.1 0.2 -0.2
v 0.1 0.2 -0.2
v 0.2 0.2 -0.2
v -0.2 0.3 0.3
v 0 0.3 0.3
v 0.1 0.3 0.3
v 0.2 0.3 0.3
v -0.3 0.3 0.2
v -0.2 0.3 0.2
v 0 0.3 0.2
v 0.1 0.3 0.2
v 0.2 0.3 0.2
v 0.3 0.3 0.2
v -0.3 0.3 0.1
v -0.2 0.3 0.1
v 0.2 0.3 0.1
v 0.3 0.3 0.1
v -0.2 0.3 0
v 0.2 0.3 -0.1
v 0.3 0.3 -0.1
v -0.3 0.3 -0.2
v -0.2 0.3 -0.2
v -0.1 0.3 -0.2
v 0 0.3 -0.2
v 0.1 0.3 -0.2
v 0.2 0.3 -0.2
v 0.3 0.3 -0.2
v -0.2 0.3 -0.3
v -0.1 0.3 -0.3
v 0 0.3 -0.3
v 0.1 0.3 -0.3
v 0.2 0.3 -0.3
v -0.3 0.4 0.3
v -0.2 0.4 0.3
v 0.2 0.4 0.3
v 0.3 0.4 0.3
v -0.3 0.4 0.2
v -0.2 0.4 0.2
v 0.2 0.4 0.2
v 0.3 0.4 0.2
v -0.3 0.4 -0.2
v -0.2 0.4 -0.2
v 0.2 0.4 -0.2
v 0.3 0.4 -0.2
v -0.3 0.4 -0.3
v -0.2 0.4 -0.3
v 0.2 0.4 -0.3
v 0.3 0.4 -0.3
v 0 0.7 0
v 0.1 0.7 0
v 0 0.7 -0.1
v 0.1 0.7 -0.1
v -0.3 0.5 0.3
v 0.1 0.5 0.3
v 0.2 0.5 0.3
v 0.3 0.5 0.3
v -0.3 0.5 0.2
v -0.2 0.5 0.2
v 0 0.5 0.2
v 0.1 0.5 0.2
v 0.2 0.5 0.2
v -0.3 0.5 0.1
v -0.2 0.5 0.1
v 0.2 0.5 0.1
v -0.3 0.5 0
v -0.2 0.5 0
v 0.2 0.5 0
v 0.3 0.5 0
v -0.3 0.5 -0.1
v -0.2 0.5 -0.1
v 0.2 0.5 -0.1
v 0.3 0.5 -0.1
v -0.2 0.5 -0.2
v -0.1 0.5 -0.2
v 0 0.5 -0.2
v 0.1 0.5 -0.2
v 0.2 0.5 -0.2
v -0.3 0.5 -0.3
v 0.1 0.5 -0.3
v 0.2 0.5 -0.3
v 0.3 0.5 -0.3
v -0.2 0.6 0.2
v 0 0.6 0.2
v 0.1 0.6 0.2
v 0.2 0.6 0.2
v -0.2 0.6 0.1
v -0.1 0.6 0.1
v 0 0.6 0.1
v 0.1 0.6 0.1
v 0.2 0.6 0.1
v -0.2 0.6 0
v -0.1 0.6 0
v 0 0.6 0
v 0.1 0.6 0
v 0.2 0.6 0
v -0.1 0.6 -0.1
v 0 0.6 -0.1
v -0.2 0.6 -0.2
v -0.1 0.6 -0.2
v 0 0.6 -0.2
v 0.2 0.6 -0.2
v 0 0.7 0.2
v 0.1 0.7 0.2
v 0 0.7 0.1
v 0.1 0.7 0.1
v 0 0.8 0.1
v 0.1 0.8 0.1
v 0 0.8 -0.1
v 0.1 0.8 -0.1

# faces
f 5/3/1 2/3/1 1/3/1
f 6/2/1 3/2/1 2/2/1
f 7/2/1 3/2/1 6/2/1
f 8/2/1 3/2/1 7/2/1
f 10/2/1 5/2/1 4/2/1
f 11/3/1 2/3/1 5/3/1
f 11/2/1 5/2/1 10/2/1
f 12/2/1 6/2/1 2/2/1
f 12/3/1 2/3/1 11/3/1
f 13/3/1 7/3/1 6/3/1
f 13/2/1 6/2/1 12/2/1
f 14/2/1 9/2/1 8/2/1
f 14/3/1 7/3/1 13/3/1
f 14/2/1 8/2/1 7/2/1
f 15/2/1 9/2/1 14/2/1
f 19/2/1 17/2/1 16/2/1
f 20/2/1 17/2/1 19/2/1
f 21/2/1 17/2/1 20/2/1
f 24/2/1 19/2/1 18/2/1
f 25/3/1 20/3/1 19/3/1
f 25/2/1 19/2/1 24/2/1
f 26/2/1 22/2/1 21/2/1
f 26/3/1 20/3/1 25/3/1
f 26/2/1 21/2/1 20/2/1
f 27/2/1 22/2/1 26/2/1
f 29/2/1 24/2/1 23/2/1
f 30/2/1 24/2/1 29/2/1
f 31/3/1 28/3/1 27/3/1
f 32/3/1 28/3/1 31/3/1
f 38/2/1 34/2/1 33/2/1
f 39/3/1 35/3/1 34/3/1
f 39/2/1 34/2/1 38/2/1
f 40/2/1 37/2/1 36/2/1
f 40/3/1 35/3/1 39/3/1
f 40/2/1 36/2/1 35/2/1
f 41/2/1 37/2/1 40/2/1
f 46/2/1 43/2/1 42/2/1
f 47/3/1 44/3/1 43/3/1
f 47/2/1 43/2/1 46/2/1
f 48/3/1 44/3/1 47/3/1
f 50/3/1 46/3/1 45/3/1
f 51/3/1 46/3/1 50/3/1
f 52/2/1 49/2/1 48/2/1
f 53/2/1 49/2/1 52/2/1
f 57/4/1 55/4/1 54/4/1
f 58/1/1 56/1/1 55/1/1
f 58/4/1 55/4/1 57/4/1
f 59/1/1 56/1/1 58/1/1
f 61/1/1 60/1/1 59/1/1
f 61/1/1 59/1/1 58/1/1
f 62/1/1 60/1/1 61/1/1
f 63/2/2 64/2/2 66/2/2
f 66/2/2 64/2/2 67/2/2
f 67/2/2 64/2/2 68/2/2
f 65/2/2 66/2/2 70/2/2
f 70/2/2 66/2/2 71/2/2
f 68/3/2 69/3/2 72/3/2
f 72/3/2 69/3/2 73/3/2
f 74/4/2 75/4/2 77/4/2
f 75/1/2 76/1/2 78/1/2
f 77/4/2 75/4/2 78/4/2
f 78/1/2 76/1/2 79/1/2
f 79/1/2 80/1/2 81/1/2
f 78/1/2 79/1/2 81/1/2
f 81/1/2 80/1/2 82/1/2
f 83/3/2 84/3/2 87/3/2
f 84/2/2 85/2/2 88/2/2
f 87/3/2 84/3/2 88/3/2
f 88/2/2 85/2/2 89/2/2
f 86/2/2 87/2/2 92/2/2
f 89/2/2 90/2/2 92/2/2
f 88/2/2 89/2/2 92/2/2
f 87/2/2 88/2/2 92/2/2
f 92/2/2 90/2/2 93/2/2
f 93/2/2 90/2/2 94/2/2
f 94/2/2 90/2/2 95/2/2
f 91/2/2 92/2/2 97/2/2
f 97/2/2 92/2/2 98/2/2
f 95/2/2 96/2/2 99/2/2
f 99/2/2 96/2/2 100/2/2
f 101/2/2 102/2/2 106/2/2
f 102/3/2 103/3/2 107/3/2
f 106/2/2 102/2/2 107/2/2
f 104/2/2 105/2/2 108/2/2
f 107/3/2 103/3/2 108/3/2
f 103/2/2 104/2/2 108/2/2
f 108/2/2 105/2/2 109/2/2
f 110/2/2 111/2/2 115/2/2
f 111/3/2 112/3/2 116/3/2
f 115/2/2 111/2/2 116/2/2
f 116/3/2 112/3/2 117/3/2
f 112/2/2 113/2/2 118/2/2
f 114/2/2 115/2/2 120/2/2
f 115/2/2 116/2/2 120/2/2
f 116/2/2 117/2/2 120/2/2
f 117/3/2 112/3/2 121/3/2
f 120/2/2 117/2/2 121/2/2
f 118/2/2 119/2/2 122/2/2
f 121/3/2 112/3/2 122/3/2
f 112/2/2 118/2/2 122/2/2
f 122/2/2 119/2/2 123/2/2
f 127/2/3 125/2/3 124/2/3
f 128/2/3 127/2/3 126/2/3
f 129/2/3 125/2/3 127/2/3
f 129/2/3 127/2/3 128/2/3
f 130/3/3 129/3/3 128/3/3
f 131/2/3 125/2/3 129/2/3
f 131/3/3 129/3/3 130/3/3
f 132/2/3 125/2/3 131/2/3
f 133/2/3 131/2/3 130/2/3
f 134/3/3 132/3/3 131/3/3
f 134/2/3 131/2/3 133/2/3
f 135/3/3 132/3/3 134/3/3
f 136/2/3 135/2/3 134/2/3
f 137/2/3 135/2/3 136/2/3
f 141/3/3 139/3/3 138/3/3
f 142/3/3 139/3/3 141/3/3
f 146/2/3 141/2/3 140/2/3
f 147/3/3 146/3/3 145/3/3
f 148/2/3 141/2/3 146/2/3
f 148/3/3 146/3/3 147/3/3
f 149/2/3 141/2/3 148/2/3
f 150/2/3 144/2/3 143/2/3
f 151/2/3 144/2/3 150/2/3
f 153/2/3 148/2/3 147/2/3
f 154/3/3 149/3/3 148/3/3
f 154/2/3 148/2/3 153/2/3
f 155/3/3 149/3/3 154/3/3
f 156/3/3 151/3/3 150/3/3
f 157/4/3 152/4/3 151/4/3
f 157/3/3 151/3/3 156/3/3
f 158/4/3 152/4/3 157/4/3
f 159/2/3 155/2/3 154/2/3
f 160/2/3 155/2/3 159/2/3
f 162/2/3 157/2/3 156/2/3
f 163/2/3 157/2/3 162/2/3
f 164/2/3 161/2/3 160/2/3
f 165/2/3 161/2/3 164/2/3
f 169/2/3 167/2/3 166/2/3
f 170/2/3 167/2/3 169/2/3
f 171/2/3 169/2/3 168/2/3
f 174/2/3 171/2/3 168/2/3
f 175/2/3 171/2/3 174/2/3
f 177/1/3 173/1/3 172/1/3
f 178/1/3 173/1/3 177/1/3
f 179/3/3 176/3/3 175/3/3
f 180/3/3 176/3/3 179/3/3
f 181/1/4 182/1/4 183/1/4
f 183/1/4 182/1/4 184/1/4
f 185/2/4 186/2/4 188/2/4
f 188/2/4 186/2/4 189/2/4
f 187/3/4 188/3/4 190/3/4
f 190/3/4 188/3/4 191/3/4
f 190/2/4 191/2/4 194/2/4
f 194/2/4 191/2/4 195/2/4
f 192/1/4 193/1/4 197/1/4
f 197/1/4 193/1/4 198/1/4
f 195/2/4 196/2/4 199/2/4
f 199/2/4 196/2/4 200/2/4
f 201/2/4 202/2/4 204/2/4
f 204/2/4 202/2/4 205/2/4
f 203/2/4 204/2/4 209/2/4
f 209/2/4 204/2/4 210/2/4
f 206/2/4 207/2/4 211/2/4
f 211/2/4 207/2/4 212/2/4
f 209/2/4 210/2/4 213/2/4
f 208/2/4 209/2/4 213/2/4
f 213/2/4 210/2/4 214/2/4
f 214/2/4 210/2/4 215/2/4
f 211/3/4 212/3/4 216/3/4
f 216/3/4 212/3/4 217/3/4
f 213/3/4 214/3/4 218/3/4
f 214/2/4 215/2/4 219/2/4
f 218/3/4 214/3/4 219/3/4
f 219/2/4 215/2/4 220/2/4
f 216/2/4 217/2/4 221/2/4
f 219/2/4 220/2/4 222/2/4
f 222/2/4 220/2/4 223/2/4
f 221/2/4 217/2/4 225/2/4
f 225/2/4 217/2/4 226/2/4
f 223/2/4 224/2/4 227/2/4
f 227/2/4 224/2/4 228/2/4
f 229/2/4 230/2/4 232/2/4
f 231/3/4 232/3/4 233/3/4
f 232/2/4 230/2/4 234/2/4
f 233/3/4 232/3/4 234/3/4
f 233/2/4 234/2/4 235/2/4
f 234/2/4 230/2/4 236/2/4
f 235/2/4 234/2/4 236/2/4
f 235/3/4 236/3/4 237/3/4
f 236/2/4 230/2/4 238/2/4
f 237/3/4 236/3/4 238/3/4
f 238/2/4 230/2/4 239/2/4
f 237/2/4 238/2/4 240/2/4
f 238/3/4 239/3/4 241/3/4
f 240/2/4 238/2/4 241/2/4
f 241/3/4 239/3/4 242/3/4
f 241/2/4 242/2/4 243/2/4
f 243/2/4 242/2/4 244/2/4
f 247/2/5 246/2/5 245/2/5
f 248/2/5 246/2/5 247/2/5
f 249/3/5 248/3/5 247/3/5
f 250/2/5 246/2/5 248/2/5
f 250/3/5 248/3/5 249/3/5
f 251/2/5 246/2/5 250/2/5
f 256/3/5 253/3/5 252/3/5
f 257/2/5 254/2/5 253/2/5
f 257/3/5 253/3/5 256/3/5
f 258/2/5 254/2/5 257/2/5
f 260/2/5 256/2/5 255/2/5
f 261/3/5 259/3/5 258/3/5
f 262/3/5 259/3/5 261/3/5
f 263/2/5 260/2/5 255/2/5
f 264/2/5 260/2/5 263/2/5
f 266/2/5 262/2/5 261/2/5
f 267/2/5 262/2/5 266/2/5
f 268/2/5 265/2/5 264/2/5
f 269/3/5 266/3/5 265/3/5
f 269/2/5 265/2/5 268/2/5
f 270/3/5 266/3/5 269/3/5
f 275/2/5 272/2/5 271/2/5
f 276/2/5 272/2/5 275/2/5
f 277/2/5 274/2/5 273/2/5
f 278/2/5 274/2/5 277/2/5
f 283/2/5 280/2/5 279/2/5
f 284/2/5 280/2/5 283/2/5
f 285/2/5 282/2/5 281/2/5
f 286/2/5 282/2/5 285/2/5
f 292/2/5 288/2/5 287/2/5
f 293/3/5 289/3/5 288/3/5
f 293/2/5 288/2/5 292/2/5
f 294/2/5 290/2/5 289/2/5
f 294/3/5 289/3/5 293/3/5
f 295/2/5 290/2/5 294/2/5
f 297/3/5 292/3/5 291/3/5
f 298/3/5 292/3/5 297/3/5
f 299/2/5 296/2/5 295/2/5
f 300/2/5 296/2/5 299/2/5
f 301/2/5 298/2/5 297/2/5
f 302/3/5 300/3/5 299/3/5
f 303/3/5 300/3/5 302/3/5
f 304/2/5 301/2/5 297/2/5
f 305/2/5 301/2/5 304/2/5
f 309/2/5 303/2/5 302/2/5
f 310/2/5 303/2/5 309/2/5
f 311/3/5 306/3/5 305/3/5
f 312/2/5 307/2/5 306/2/5
f 312/3/5 306/3/5 311/3/5
f 313/3/5 308/3/5 307/3/5
f 313/2/5 307/2/5 312/2/5
f 314/2/5 309/2/5 308/2/5
f 314/3/5 308/3/5 313/3/5
f 315/2/5 309/2/5 314/2/5
f 320/2/5 317/2/5 316/2/5
f 321/2/5 317/2/5 320/2/5
f 322/2/5 319/2/5 318/2/5
f 323/2/5 319/2/5 322/2/5
f 328/2/5 325/2/5 324/2/5
f 329/2/5 325/2/5 328/2/5
f 330/2/5 327/2/5 326/2/5
f 331/2/5 327/2/5 330/2/5
f 334/1/5 333/1/5 332/1/5
f 335/1/5 333/1/5 334/1/5
f 336/2/6 337/2/6 340/2/6
f 340/2/6 337/2/6 341/2/6
f 341/2/6 337/2/6 342/2/6
f 337/3/6 338/3/6 343/3/6
f 342/2/6 337/2/6 343/2/6
f 338/2/6 339/2/6 344/2/6
f 343/3/6 338/3/6 344/3/6
f 340/3/6 341/3/6 345/3/6
f 345/3/6 341/3/6 346/3/6
f 344/2/6 339/2/6 347/2/6
f 345/2/6 346/2/6 348/2/6
f 348/2/6 346/2/6 349/2/6
f 347/2/6 339/2/6 350/2/6
f 350/2/6 339/2/6 351/2/6
f 348/3/6 349/3/6 352/3/6
f 352/3/6 349/3/6 353/3/6
f 350/3/6 351/3/6 354/3/6
f 354/3/6 351/3/6 355/3/6
f 352/2/6 353/2/6 356/2/6
f 354/2/6 355/2/6 360/2/6
f 358/2/6 359/2/6 361/2/6
f 352/2/6 356/2/6 361/2/6
f 356/2/6 357/2/6 361/2/6
f 357/2/6 358/2/6 361/2/6
f 359/3/6 360/3/6 362/3/6
f 361/2/6 359/2/6 362/2/6
f 360/2/6 355/2/6 363/2/6
f 362/3/6 360/3/6 363/3/6
f 363/2/6 355/2/6 364/2/6
f 365/2/6 366/2/6 369/2/6
f 369/2/6 366/2/6 370/2/6
f 370/2/6 366/2/6 371/2/6
f 367/2/6 368/2/6 372/2/6
f 372/2/6 368/2/6 373/2/6
f 369/3/6 370/3/6 374/3/6
f 370/2/6 371/2/6 375/2/6
f 374/3/6 370/3/6 375/3/6
f 375/2/6 371/2/6 376/2/6
f 372/3/6 373/3/6 377/3/6
f 377/3/6 373/3/6 378/3/6
f 375/2/6 376/2/6 379/2/6
f 374/2/6 375/2/6 379/2/6
f 377/2/6 378/2/6 379/2/6
f 376/2/6 377/2/6 379/2/6
f 379/2/6 378/2/6 380/2/6
f 374/2/6 379/2/6 381/2/6
f 379/3/6 380/3/6 382/3/6
f 381/2/6 379/2/6 382/2/6
f 380/2/6 378/2/6 383/2/6
f 382/3/6 380/3/6 383/3/6
f 383/2/6 378/2/6 384/2/6
f 385/4/6 386/4/6 387/4/6
f 387/4/6 386/4/6 388/4/6
f 389/1/6 390/1/6 391/1/6
f 391/1/6 390/1/6 392/1/6
