# MagicaVoxel @ Ephtracy

# group
o 

# material
mtllib Nest 8x8.mtl
usemtl palette

# normals
vn -1 0 0
vn 1 0 0
vn 0 0 1
vn 0 0 -1
vn 0 -1 0
vn 0 1 0

# texcoords
vt 0.0839844 0.5
vt 0.0878906 0.5

# verts
v -0.4 0.2 0.4
v -0.4 0.2 0
v -0.4 0.2 -0.3
v -0.4 0.2 -0.4
v -0.4 0.3 0.4
v -0.4 0.3 0
v -0.4 0.3 -0.3
v -0.4 0.3 -0.4
v -0.3 0.1 0.4
v -0.3 0.1 0.3
v -0.3 0.1 0.2
v -0.3 0.1 0.1
v -0.3 0.1 -0.4
v -0.3 0.2 0.4
v -0.3 0.2 0.3
v -0.3 0.2 0.2
v -0.3 0.2 0.1
v -0.3 0.2 0
v -0.3 0.2 -0.3
v -0.3 0.2 -0.4
v -0.2 0 0.3
v -0.2 0 0.2
v -0.2 0 0.1
v -0.2 0 -0.3
v -0.2 0.1 0.3
v -0.2 0.1 0.2
v -0.2 0.1 0.1
v -0.2 0.1 -0.3
v 0.2 0.1 0.2
v 0.2 0.1 0.1
v 0.2 0.1 -0.1
v 0.2 0.1 -0.2
v 0.2 0.2 0.2
v 0.2 0.2 0.1
v 0.2 0.2 -0.1
v 0.2 0.2 -0.2
v 0.3 0.2 0.3
v 0.3 0.2 0.1
v 0.3 0.2 -0.1
v 0.3 0.2 -0.2
v 0.3 0.2 -0.3
v 0.3 0.3 0.3
v 0.3 0.3 -0.2
v 0.3 0.3 -0.3
v -0.3 0.2 0.3
v -0.3 0.2 0.2
v -0.3 0.2 0.1
v -0.3 0.2 0
v -0.3 0.2 -0.3
v -0.3 0.3 0.3
v -0.3 0.3 0
v -0.3 0.3 -0.3
v -0.2 0.1 0.2
v -0.2 0.1 0.1
v -0.2 0.1 -0.2
v -0.2 0.2 0.2
v -0.2 0.2 0.1
v -0.2 0.2 -0.2
v 0.2 0 0.3
v 0.2 0 0.2
v 0.2 0 -0.2
v 0.2 0 -0.3
v 0.2 0.1 0.3
v 0.2 0.1 0.2
v 0.2 0.1 0.1
v 0.2 0.1 -0.1
v 0.2 0.1 -0.2
v 0.2 0.1 -0.3
v 0.3 0.1 0.4
v 0.3 0.1 0.1
v 0.3 0.1 -0.1
v 0.3 0.1 -0.3
v 0.3 0.1 -0.4
v 0.3 0.2 0.4
v 0.3 0.2 0.1
v 0.3 0.2 -0.1
v 0.3 0.2 -0.2
v 0.3 0.2 -0.3
v 0.3 0.2 -0.4
v 0.4 0.2 0.4
v 0.4 0.2 -0.2
v 0.4 0.2 -0.3
v 0.4 0.2 -0.4
v 0.4 0.3 0.4
v 0.4 0.3 -0.2
v 0.4 0.3 -0.3
v 0.4 0.3 -0.4
v -0.4 0.2 0.4
v -0.4 0.3 0.4
v -0.3 0.1 0.4
v -0.3 0.2 0.4
v -0.1 0.1 0.4
v -0.1 0.2 0.4
v 0 0.2 0.4
v 0 0.3 0.4
v 0.2 0.2 0.4
v 0.2 0.3 0.4
v 0.3 0.1 0.4
v 0.3 0.2 0.4
v 0.4 0.2 0.4
v 0.4 0.3 0.4
v -0.2 0 0.3
v -0.2 0.1 0.3
v -0.1 0.1 0.3
v 0 0 0.3
v 0 0.1 0.3
v 0.2 0 0.3
v 0.2 0.1 0.3
v -0.2 0.1 -0.2
v -0.2 0.2 -0.2
v 0.2 0.1 -0.2
v 0.2 0.2 -0.2
v -0.3 0.2 -0.3
v -0.3 0.3 -0.3
v -0.2 0.2 -0.3
v -0.2 0.3 -0.3
v 0 0.2 -0.3
v 0 0.3 -0.3
v 0.3 0.2 -0.3
v 0.3 0.3 -0.3
v -0.3 0.2 0.3
v -0.3 0.3 0.3
v 0 0.2 0.3
v 0 0.3 0.3
v 0.2 0.2 0.3
v 0.2 0.3 0.3
v 0.3 0.2 0.3
v 0.3 0.3 0.3
v -0.2 0.1 0.2
v -0.2 0.2 0.2
v -0.1 0.1 0.2
v 0.2 0.1 0.2
v 0.2 0.2 0.2
v -0.2 0 -0.3
v -0.2 0.1 -0.3
v 0 0 -0.3
v 0 0.1 -0.3
v 0.2 0 -0.3
v 0.2 0.1 -0.3
v -0.4 0.2 -0.4
v -0.4 0.3 -0.4
v -0.3 0.1 -0.4
v -0.3 0.2 -0.4
v -0.2 0.2 -0.4
v -0.2 0.3 -0.4
v 0 0.2 -0.4
v 0 0.3 -0.4
v 0.2 0.1 -0.4
v 0.2 0.2 -0.4
v 0.3 0.1 -0.4
v 0.3 0.2 -0.4
v 0.4 0.2 -0.4
v 0.4 0.3 -0.4
v -0.2 0 0.3
v 0 0 0.3
v 0.2 0 0.3
v -0.2 0 0.2
v -0.1 0 0.2
v 0 0 0.2
v 0.2 0 0.2
v -0.2 0 0.1
v -0.1 0 0.1
v 0 0 -0.2
v 0.2 0 -0.2
v -0.2 0 -0.3
v 0 0 -0.3
v 0.2 0 -0.3
v -0.3 0.1 0.4
v -0.1 0.1 0.4
v 0.3 0.1 0.4
v -0.3 0.1 0.3
v -0.2 0.1 0.3
v -0.1 0.1 0.3
v 0 0.1 0.3
v 0.2 0.1 0.3
v -0.3 0.1 0.2
v -0.2 0.1 0.2
v 0.2 0.1 0.2
v -0.3 0.1 0.1
v -0.2 0.1 0.1
v 0.2 0.1 0.1
v 0.3 0.1 0.1
v 0.2 0.1 -0.1
v 0.3 0.1 -0.1
v 0.2 0.1 -0.2
v -0.2 0.1 -0.3
v 0 0.1 -0.3
v 0.2 0.1 -0.3
v 0.3 0.1 -0.3
v -0.3 0.1 -0.4
v 0.2 0.1 -0.4
v 0.3 0.1 -0.4
v -0.4 0.2 0.4
v -0.3 0.2 0.4
v 0.3 0.2 0.4
v 0.4 0.2 0.4
v -0.3 0.2 0.3
v -0.3 0.2 0.2
v -0.3 0.2 0.1
v 0.3 0.2 0.1
v -0.4 0.2 0
v -0.3 0.2 0
v 0.3 0.2 -0.1
v 0.3 0.2 -0.2
v 0.4 0.2 -0.2
v -0.4 0.2 -0.3
v -0.3 0.2 -0.3
v 0.3 0.2 -0.3
v 0.4 0.2 -0.3
v -0.4 0.2 -0.4
v -0.3 0.2 -0.4
v 0.3 0.2 -0.4
v 0.4 0.2 -0.4
v -0.2 0.1 0.2
v -0.1 0.1 0.2
v 0.2 0.1 0.2
v -0.2 0.1 0.1
v -0.1 0.1 0.1
v 0.2 0.1 0.1
v 0.2 0.1 -0.1
v -0.2 0.1 -0.2
v 0.2 0.1 -0.2
v -0.3 0.2 0.3
v 0 0.2 0.3
v 0.2 0.2 0.3
v 0.3 0.2 0.3
v -0.3 0.2 0.2
v -0.2 0.2 0.2
v 0.2 0.2 0.2
v -0.3 0.2 0.1
v -0.2 0.2 0.1
v 0.2 0.2 0.1
v 0.3 0.2 0.1
v -0.3 0.2 0
v 0.2 0.2 -0.1
v 0.3 0.2 -0.1
v -0.2 0.2 -0.2
v 0.2 0.2 -0.2
v 0.3 0.2 -0.2
v -0.3 0.2 -0.3
v -0.2 0.2 -0.3
v 0 0.2 -0.3
v 0.3 0.2 -0.3
v -0.4 0.3 0.4
v 0 0.3 0.4
v 0.2 0.3 0.4
v 0.4 0.3 0.4
v -0.3 0.3 0.3
v 0 0.3 0.3
v 0.2 0.3 0.3
v 0.3 0.3 0.3
v -0.4 0.3 0
v -0.3 0.3 0
v 0.3 0.3 -0.2
v 0.4 0.3 -0.2
v -0.4 0.3 -0.3
v -0.3 0.3 -0.3
v -0.2 0.3 -0.3
v 0 0.3 -0.3
v 0.3 0.3 -0.3
v 0.4 0.3 -0.3
v -0.4 0.3 -0.4
v -0.2 0.3 -0.4
v 0 0.3 -0.4
v 0.4 0.3 -0.4

# faces
f 5/1/1 2/1/1 1/1/1
f 6/2/1 3/2/1 2/2/1
f 6/1/1 2/1/1 5/1/1
f 7/1/1 4/1/1 3/1/1
f 7/2/1 3/2/1 6/2/1
f 8/1/1 4/1/1 7/1/1
f 14/2/1 10/2/1 9/2/1
f 15/1/1 11/1/1 10/1/1
f 15/2/1 10/2/1 14/2/1
f 16/2/1 12/2/1 11/2/1
f 16/1/1 11/1/1 15/1/1
f 17/1/1 13/1/1 12/1/1
f 17/2/1 12/2/1 16/2/1
f 18/1/1 13/1/1 17/1/1
f 19/1/1 13/1/1 18/1/1
f 20/1/1 13/1/1 19/1/1
f 25/1/1 22/1/1 21/1/1
f 26/2/1 23/2/1 22/2/1
f 26/1/1 22/1/1 25/1/1
f 27/1/1 24/1/1 23/1/1
f 27/2/1 23/2/1 26/2/1
f 28/1/1 24/1/1 27/1/1
f 33/1/1 30/1/1 29/1/1
f 34/2/1 31/2/1 30/2/1
f 34/1/1 30/1/1 33/1/1
f 35/1/1 32/1/1 31/1/1
f 35/2/1 31/2/1 34/2/1
f 36/1/1 32/1/1 35/1/1
f 42/1/1 38/1/1 37/1/1
f 42/1/1 39/1/1 38/1/1
f 42/1/1 40/1/1 39/1/1
f 43/2/1 41/2/1 40/2/1
f 43/1/1 40/1/1 42/1/1
f 44/2/1 41/2/1 43/2/1
f 45/1/2 46/1/2 50/1/2
f 46/1/2 47/1/2 50/1/2
f 47/1/2 48/1/2 50/1/2
f 48/2/2 49/2/2 51/2/2
f 50/1/2 48/1/2 51/1/2
f 51/2/2 49/2/2 52/2/2
f 53/2/2 54/2/2 56/2/2
f 54/1/2 55/1/2 57/1/2
f 56/2/2 54/2/2 57/2/2
f 57/1/2 55/1/2 58/1/2
f 59/2/2 60/2/2 63/2/2
f 60/1/2 61/1/2 64/1/2
f 63/2/2 60/2/2 64/2/2
f 64/1/2 61/1/2 65/1/2
f 65/1/2 61/1/2 66/1/2
f 61/2/2 62/2/2 67/2/2
f 66/1/2 61/1/2 67/1/2
f 67/2/2 62/2/2 68/2/2
f 69/1/2 70/1/2 74/1/2
f 70/2/2 71/2/2 75/2/2
f 74/1/2 70/1/2 75/1/2
f 71/1/2 72/1/2 76/1/2
f 75/2/2 71/2/2 76/2/2
f 76/1/2 72/1/2 77/1/2
f 72/2/2 73/2/2 78/2/2
f 77/1/2 72/1/2 78/1/2
f 78/2/2 73/2/2 79/2/2
f 80/1/2 81/1/2 84/1/2
f 81/2/2 82/2/2 85/2/2
f 84/1/2 81/1/2 85/1/2
f 82/1/2 83/1/2 86/1/2
f 85/2/2 82/2/2 86/2/2
f 86/1/2 83/1/2 87/1/2
f 91/1/3 89/1/3 88/1/3
f 92/2/3 91/2/3 90/2/3
f 93/1/3 89/1/3 91/1/3
f 93/2/3 91/2/3 92/2/3
f 94/1/3 93/1/3 92/1/3
f 94/1/3 89/1/3 93/1/3
f 95/1/3 89/1/3 94/1/3
f 96/1/3 94/1/3 92/1/3
f 96/2/3 95/2/3 94/2/3
f 97/2/3 95/2/3 96/2/3
f 98/1/3 96/1/3 92/1/3
f 98/1/3 97/1/3 96/1/3
f 99/1/3 97/1/3 98/1/3
f 100/1/3 97/1/3 99/1/3
f 101/1/3 97/1/3 100/1/3
f 104/1/3 103/1/3 102/1/3
f 105/1/3 104/1/3 102/1/3
f 106/1/3 104/1/3 105/1/3
f 107/2/3 106/2/3 105/2/3
f 108/2/3 106/2/3 107/2/3
f 111/1/3 110/1/3 109/1/3
f 112/1/3 110/1/3 111/1/3
f 115/1/3 114/1/3 113/1/3
f 116/1/3 114/1/3 115/1/3
f 117/2/3 116/2/3 115/2/3
f 118/2/3 116/2/3 117/2/3
f 119/1/3 118/1/3 117/1/3
f 120/1/3 118/1/3 119/1/3
f 121/1/4 122/1/4 123/1/4
f 123/1/4 122/1/4 124/1/4
f 123/2/4 124/2/4 125/2/4
f 125/2/4 124/2/4 126/2/4
f 125/1/4 126/1/4 127/1/4
f 127/1/4 126/1/4 128/1/4
f 129/1/4 130/1/4 131/1/4
f 131/1/4 130/1/4 132/1/4
f 132/1/4 130/1/4 133/1/4
f 134/1/4 135/1/4 136/1/4
f 136/1/4 135/1/4 137/1/4
f 136/2/4 137/2/4 138/2/4
f 138/2/4 137/2/4 139/2/4
f 140/1/4 141/1/4 143/1/4
f 143/1/4 141/1/4 144/1/4
f 142/1/4 143/1/4 144/1/4
f 144/1/4 141/1/4 145/1/4
f 142/1/4 144/1/4 146/1/4
f 144/2/4 145/2/4 146/2/4
f 146/2/4 145/2/4 147/2/4
f 142/1/4 146/1/4 148/1/4
f 146/1/4 147/1/4 148/1/4
f 148/1/4 147/1/4 149/1/4
f 148/2/4 149/2/4 150/2/4
f 149/1/4 147/1/4 151/1/4
f 150/2/4 149/2/4 151/2/4
f 151/1/4 147/1/4 152/1/4
f 152/1/4 147/1/4 153/1/4
f 157/1/5 155/1/5 154/1/5
f 158/1/5 155/1/5 157/1/5
f 159/2/5 156/2/5 155/2/5
f 159/1/5 155/1/5 158/1/5
f 160/2/5 156/2/5 159/2/5
f 161/2/5 158/2/5 157/2/5
f 162/1/5 159/1/5 158/1/5
f 162/2/5 158/2/5 161/2/5
f 162/1/5 160/1/5 159/1/5
f 163/1/5 162/1/5 161/1/5
f 163/1/5 160/1/5 162/1/5
f 164/1/5 160/1/5 163/1/5
f 165/1/5 163/1/5 161/1/5
f 166/2/5 164/2/5 163/2/5
f 166/1/5 163/1/5 165/1/5
f 167/2/5 164/2/5 166/2/5
f 171/2/5 169/2/5 168/2/5
f 172/2/5 169/2/5 171/2/5
f 173/1/5 170/1/5 169/1/5
f 173/2/5 169/2/5 172/2/5
f 174/1/5 170/1/5 173/1/5
f 175/1/5 170/1/5 174/1/5
f 176/1/5 172/1/5 171/1/5
f 177/1/5 172/1/5 176/1/5
f 178/1/5 170/1/5 175/1/5
f 179/2/5 177/2/5 176/2/5
f 180/2/5 177/2/5 179/2/5
f 181/1/5 170/1/5 178/1/5
f 182/1/5 170/1/5 181/1/5
f 183/2/5 182/2/5 181/2/5
f 184/2/5 182/2/5 183/2/5
f 185/1/5 184/1/5 183/1/5
f 186/1/5 180/1/5 179/1/5
f 188/1/5 184/1/5 185/1/5
f 189/1/5 184/1/5 188/1/5
f 190/1/5 187/1/5 186/1/5
f 190/1/5 186/1/5 179/1/5
f 190/1/5 188/1/5 187/1/5
f 191/2/5 189/2/5 188/2/5
f 191/1/5 188/1/5 190/1/5
f 192/2/5 189/2/5 191/2/5
f 197/1/5 194/1/5 193/1/5
f 198/1/5 197/1/5 193/1/5
f 199/1/5 198/1/5 193/1/5
f 200/1/5 196/1/5 195/1/5
f 201/1/5 199/1/5 193/1/5
f 202/1/5 199/1/5 201/1/5
f 203/1/5 196/1/5 200/1/5
f 204/1/5 196/1/5 203/1/5
f 205/1/5 196/1/5 204/1/5
f 206/2/5 202/2/5 201/2/5
f 207/2/5 202/2/5 206/2/5
f 208/2/5 205/2/5 204/2/5
f 209/2/5 205/2/5 208/2/5
f 210/1/5 207/1/5 206/1/5
f 211/1/5 207/1/5 210/1/5
f 212/1/5 209/1/5 208/1/5
f 213/1/5 209/1/5 212/1/5
f 214/2/6 215/2/6 217/2/6
f 215/1/6 216/1/6 218/1/6
f 217/2/6 215/2/6 218/2/6
f 218/1/6 216/1/6 219/1/6
f 217/1/6 218/1/6 220/1/6
f 218/1/6 219/1/6 220/1/6
f 217/1/6 220/1/6 221/1/6
f 221/1/6 220/1/6 222/1/6
f 223/1/6 224/1/6 227/1/6
f 225/1/6 226/1/6 227/1/6
f 224/1/6 225/1/6 227/1/6
f 227/1/6 226/1/6 228/1/6
f 228/1/6 226/1/6 229/1/6
f 227/2/6 228/2/6 230/2/6
f 230/2/6 228/2/6 231/2/6
f 229/1/6 226/1/6 232/1/6
f 232/1/6 226/1/6 233/1/6
f 230/1/6 231/1/6 234/1/6
f 232/2/6 233/2/6 235/2/6
f 235/2/6 233/2/6 236/2/6
f 234/1/6 231/1/6 237/1/6
f 235/1/6 236/1/6 238/1/6
f 238/1/6 236/1/6 239/1/6
f 234/1/6 237/1/6 240/1/6
f 237/1/6 238/1/6 240/1/6
f 238/1/6 239/1/6 240/1/6
f 240/1/6 239/1/6 241/1/6
f 241/1/6 239/1/6 242/1/6
f 242/1/6 239/1/6 243/1/6
f 244/1/6 245/1/6 248/1/6
f 245/2/6 246/2/6 249/2/6
f 248/1/6 245/1/6 249/1/6
f 246/1/6 247/1/6 250/1/6
f 249/2/6 246/2/6 250/2/6
f 250/1/6 247/1/6 251/1/6
f 244/1/6 248/1/6 252/1/6
f 252/1/6 248/1/6 253/1/6
f 251/1/6 247/1/6 254/1/6
f 254/1/6 247/1/6 255/1/6
f 252/2/6 253/2/6 256/2/6
f 256/2/6 253/2/6 257/2/6
f 254/2/6 255/2/6 260/2/6
f 260/2/6 255/2/6 261/2/6
f 256/1/6 257/1/6 262/1/6
f 257/1/6 258/1/6 262/1/6
f 258/2/6 259/2/6 263/2/6
f 262/1/6 258/1/6 263/1/6
f 260/1/6 261/1/6 264/1/6
f 263/2/6 259/2/6 264/2/6
f 259/1/6 260/1/6 264/1/6
f 264/1/6 261/1/6 265/1/6
