# MagicaVoxel @ Ephtracy

# group
o 

# material
mtllib Midground.mtl
usemtl palette

# normals
vn -1 0 0
vn 1 0 0
vn 0 0 1
vn 0 0 -1
vn 0 -1 0
vn 0 1 0

# texcoords
vt 0.134766 0.5
vt 0.138672 0.5
vt 0.232422 0.5
vt 0.236328 0.5
vt 0.244141 0.5
vt 0.248047 0.5

# verts
v -4.1 0 -5.6
v -4.1 0 -9.6
v -4.1 0.6 -5.6
v -4.1 0.6 -9.6
v -4.1 1.1 -5.6
v -4.1 1.1 -9.6
v -4.1 1.9 -5.6
v -4.1 1.9 -9.6
v -4.1 2.7 -5.6
v -4.1 2.7 -9.6
v -4.1 4 -5.6
v -4.1 4 -9.6
v -0.0999999 0 -5.6
v -0.0999999 0 -9.6
v -0.0999999 0.6 -5.6
v -0.0999999 0.6 -9.6
v -0.0999999 1.1 -5.6
v -0.0999999 1.1 -9.6
v -0.0999999 1.9 -5.6
v -0.0999999 1.9 -9.6
v -0.0999999 2.7 -5.6
v -0.0999999 2.7 -9.6
v -0.0999999 4 -5.6
v -0.0999999 4 -9.6
v -4.1 0 -5.6
v -4.1 0.6 -5.6
v -4.1 1.1 -5.6
v -4.1 1.9 -5.6
v -4.1 2.7 -5.6
v -4.1 4 -5.6
v -0.0999999 0 -5.6
v -0.0999999 0.6 -5.6
v -0.0999999 1.1 -5.6
v -0.0999999 1.9 -5.6
v -0.0999999 2.7 -5.6
v -0.0999999 4 -5.6
v -4.1 0 -9.6
v -4.1 0.6 -9.6
v -4.1 1.1 -9.6
v -4.1 1.9 -9.6
v -4.1 2.7 -9.6
v -4.1 4 -9.6
v -0.0999999 0 -9.6
v -0.0999999 0.6 -9.6
v -0.0999999 1.1 -9.6
v -0.0999999 1.9 -9.6
v -0.0999999 2.7 -9.6
v -0.0999999 4 -9.6
v -4.1 0 -5.6
v -0.0999999 0 -5.6
v -4 0 -5.8
v -0.2 0 -5.8
v -4 0 -9.5
v -0.2 0 -9.5
v -4.1 0 -9.6
v -0.0999999 0 -9.6
v -4.1 4 -5.6
v -0.0999999 4 -5.6
v -4.1 4 -9.6
v -0.0999999 4 -9.6

# faces
f 3/6/1 2/6/1 1/6/1
f 4/6/1 2/6/1 3/6/1
f 5/1/1 4/1/1 3/1/1
f 6/1/1 4/1/1 5/1/1
f 7/2/1 6/2/1 5/2/1
f 8/2/1 6/2/1 7/2/1
f 9/1/1 8/1/1 7/1/1
f 10/1/1 8/1/1 9/1/1
f 11/6/1 10/6/1 9/6/1
f 12/6/1 10/6/1 11/6/1
f 13/6/2 14/6/2 15/6/2
f 15/6/2 14/6/2 16/6/2
f 15/1/2 16/1/2 17/1/2
f 17/1/2 16/1/2 18/1/2
f 17/2/2 18/2/2 19/2/2
f 19/2/2 18/2/2 20/2/2
f 19/1/2 20/1/2 21/1/2
f 21/1/2 20/1/2 22/1/2
f 21/6/2 22/6/2 23/6/2
f 23/6/2 22/6/2 24/6/2
f 31/6/3 26/6/3 25/6/3
f 32/1/3 27/1/3 26/1/3
f 32/6/3 26/6/3 31/6/3
f 33/2/3 28/2/3 27/2/3
f 33/1/3 27/1/3 32/1/3
f 34/1/3 29/1/3 28/1/3
f 34/2/3 28/2/3 33/2/3
f 35/6/3 30/6/3 29/6/3
f 35/1/3 29/1/3 34/1/3
f 36/6/3 30/6/3 35/6/3
f 37/6/4 38/6/4 43/6/4
f 38/1/4 39/1/4 44/1/4
f 43/6/4 38/6/4 44/6/4
f 39/2/4 40/2/4 45/2/4
f 44/1/4 39/1/4 45/1/4
f 40/1/4 41/1/4 46/1/4
f 45/2/4 40/2/4 46/2/4
f 41/6/4 42/6/4 47/6/4
f 46/1/4 41/1/4 47/1/4
f 47/6/4 42/6/4 48/6/4
f 51/6/5 50/6/5 49/6/5
f 52/6/5 50/6/5 51/6/5
f 53/6/5 51/6/5 49/6/5
f 53/5/5 52/5/5 51/5/5
f 54/6/5 50/6/5 52/6/5
f 54/5/5 52/5/5 53/5/5
f 55/6/5 53/6/5 49/6/5
f 55/6/5 54/6/5 53/6/5
f 56/6/5 50/6/5 54/6/5
f 56/6/5 54/6/5 55/6/5
f 57/6/6 58/6/6 59/6/6
f 59/6/6 58/6/6 60/6/6
